#!OML:ASF F:\VICON\USERDATA\INSTALL\rory3\rory3.ASF
:FULLY-SPECIFIED
:DEGREES
268
root -0.967566 18.0052 14.528 175.599 10.4561 -181.58
lowerback 20.1863 1.24656 -5.68785
upperback 2.63269 0.989413 1.74392
thorax -8.5455 0.873141 4.86652
lowerneck -10.175 -1.83388 -1.80157
upperneck 32.6752 1.44199 -2.00926
head 12.5203 1.19605 -0.0300711
rclavicle 1.15295e-014 -1.43125e-014
rhumerus -24.3232 1.92097 -89.2691
rradius 41.5194
rwrist 10.8187
rhand -17.2679 11.0673
rfingers 7.12502
rthumb 8.97686 -18.7217
lclavicle 1.15295e-014 -1.43125e-014
lhumerus -26.4806 -7.28444 93.4942
lradius 34.5931
lwrist -15.388
lhand -2.42166 55.7966
lfingers 7.12502
lthumb 23.2689 84.4106
rfemur -21.4603 -7.89805 21.9708
rtibia 34.164
rfoot -11.2196 -23.476
rtoes 33.0827
lfemur -0.928912 -0.962544 -22.8541
ltibia 38.4187
lfoot -12.0325 4.2282
ltoes -28.6974
269
root -0.917833 18.018 14.4036 175.495 11.2382 -181.253
lowerback 20.2223 1.42446 -5.44733
upperback 2.635 1.29379 1.95256
thorax -8.60254 1.01648 4.8742
lowerneck -10.2716 -1.72962 -1.739
upperneck 32.8693 1.70527 -2.22104
head 12.6269 1.30422 -0.0824945
rclavicle 2.36554e-014 -1.59028e-015
rhumerus -24.2122 2.06013 -89.3865
rradius 41.9998
rwrist 11.6579
rhand -17.9852 11.2701
rfingers 7.12502
rthumb 8.28458 -18.5474
lclavicle 2.36554e-014 -1.59028e-015
lhumerus -27.3286 -6.34423 92.9064
lradius 35.0489
lwrist -12.1561
lhand -4.3429 54.7523
lfingers 7.12502
lthumb 21.4247 83.5877
rfemur -20.9114 -6.6916 22.4538
rtibia 34.2919
rfoot -11.5861 -24.0045
rtoes 32.199
lfemur -1.31404 -0.434117 -22.2844
ltibia 40.1177
lfoot -11.0493 4.00727
ltoes -31.0264
270
root -0.872547 18.0233 14.286 175.485 11.8082 -180.813
lowerback 20.0862 1.48896 -4.95923
upperback 2.75125 1.52475 2.1577
thorax -8.42487 1.11235 4.75511
lowerneck -10.2973 -1.66349 -1.82845
upperneck 32.7557 1.83057 -2.32446
head 12.5877 1.32902 -0.0913162
rclavicle 3.97569e-015 -2.22639e-014
rhumerus -23.9413 1.87957 -89.4121
rradius 42.6349
rwrist 12.6167
rhand -18.1353 11.3411
rfingers 7.12502
rthumb 8.13971 -18.4821
lclavicle 3.97569e-015 -2.22639e-014
lhumerus -28.013 -5.61983 92.2758
lradius 35.69
lwrist -8.71046
lhand -6.03666 53.5733
lfingers 7.12502
lthumb 19.7971 82.5851
rfemur -20.3969 -5.91155 23.0326
rtibia 34.3858
rfoot -11.7016 -24.2853
rtoes 30.2862
lfemur -1.93635 0.0153465 -21.5499
ltibia 42.0016
lfoot -9.89096 3.44985
ltoes -31.0875
271
root -0.832759 18.0243 14.1719 175.534 12.1167 -180.543
lowerback 20.2875 1.49163 -4.57172
upperback 2.58225 1.60262 2.29178
thorax -8.72589 1.14558 4.65735
lowerneck -10.1481 -1.69186 -2.08562
upperneck 32.8071 1.84226 -2.22634
head 12.5772 1.32549 -0.00570082
rclavicle -9.14409e-015 2.74323e-014
rhumerus -23.7854 1.56532 -89.4227
rradius 42.7564
rwrist 13.5699
rhand -18.4905 11.7961
rfingers 7.12502
rthumb 7.79693 -18.0401
lclavicle -9.14409e-015 2.74323e-014
lhumerus -29.1552 -4.93607 91.6234
lradius 36.5144
lwrist -5.20521
lhand -6.56781 52.585
lfingers 7.12502
lthumb 19.2864 81.6486
rfemur -19.9702 -5.60546 23.3901
rtibia 34.4836
rfoot -12.065 -24.2684
rtoes 29.2404
lfemur -2.82724 0.354326 -20.9789
ltibia 43.993
lfoot -8.26148 2.57831
ltoes -30.2835
272
root -0.788892 18.0279 14.05 175.424 12.4575 -180.375
lowerback 20.4713 1.52238 -4.20936
upperback 2.4686 1.70905 2.30917
thorax -8.95578 1.18847 4.43668
lowerneck -9.90871 -1.6672 -1.95228
upperneck 32.8482 1.91223 -2.31879
head 12.5453 1.37786 -0.053327
rclavicle -2.68359e-014 4.37326e-015
rhumerus -23.5614 1.07727 -89.4887
rradius 42.7669
rwrist 14.6484
rhand -18.9634 12.2024
rfingers 7.12502
rthumb 7.34053 -17.6503
lclavicle -2.68359e-014 4.37326e-015
lhumerus -30.2489 -4.16338 90.8119
lradius 37.3549
lwrist -1.65651
lhand -7.06392 51.7799
lfingers 7.12502
lthumb 18.8093 80.8905
rfemur -19.4126 -5.54652 23.626
rtibia 34.5718
rfoot -12.7129 -24.2109
rtoes 29.1324
lfemur -3.62975 0.763852 -20.5052
ltibia 46.0218
lfoot -6.48247 1.79267
ltoes -29.6261
273
root -0.748537 18.0316 13.9308 175.425 12.7158 -180.408
lowerback 20.2544 1.51189 -4.0374
upperback 2.53799 1.74081 2.284
thorax -8.75934 1.19208 4.30232
lowerneck -9.76784 -1.62543 -1.87829
upperneck 32.5344 1.90222 -2.39319
head 12.3853 1.36084 -0.101797
rclavicle 7.55382e-015 1.23246e-014
rhumerus -23.2893 0.814455 -89.5468
rradius 43.3579
rwrist 15.5673
rhand -19.2249 12.1306
rfingers 7.12502
rthumb 7.08803 -17.7307
lclavicle 7.55382e-015 1.23246e-014
lhumerus -30.9517 -3.54696 89.9979
lradius 38.2008
lwrist 2.35172
lhand -8.26649 51.1377
lfingers 7.12502
lthumb 17.6524 80.3564
rfemur -19.0999 -5.74521 23.6389
rtibia 34.6446
rfoot -12.7633 -24.113
rtoes 27.8961
lfemur -4.70205 1.07689 -20.2728
ltibia 48.0509
lfoot -4.3965 1.10661
ltoes -27.6241
274
root -0.708288 18.0299 13.8158 175.416 12.7866 -180.365
lowerback 20.082 1.4246 -3.84425
upperback 2.69429 1.69423 2.32695
thorax -8.4845 1.16177 4.2519
lowerneck -9.9369 -1.62884 -2.09181
upperneck 32.2823 1.80442 -2.24969
head 12.314 1.28179 -0.0287041
rclavicle 1.2921e-015 -6.48038e-014
rhumerus -22.8475 0.721135 -89.5063
rradius 43.9724
rwrist 16.5341
rhand -19.1665 12.0507
rfingers 7.12502
rthumb 7.14439 -17.8087
lclavicle 1.2921e-015 -6.48038e-014
lhumerus -31.4718 -2.58032 89.1176
lradius 39.026
lwrist 5.66215
lhand -8.94147 50.5877
lfingers 7.12502
lthumb 17.0028 79.8636
rfemur -18.6905 -5.94429 23.7022
rtibia 34.6629
rfoot -12.5935 -23.917
rtoes 26.4367
lfemur -5.8156 1.21141 -19.9704
ltibia 50.0653
lfoot -2.07166 0.423627
ltoes -25.2116
275
root -0.667861 18.0179 13.7037 175.323 12.8026 -180.037
lowerback 20.3505 1.34205 -3.40442
upperback 2.6613 1.69727 2.47733
thorax -8.66059 1.15939 4.16061
lowerneck -9.99789 -1.62061 -2.2587
upperneck 32.2695 1.79377 -2.10129
head 12.3196 1.27071 0.0548732
rclavicle 1.98785e-015 1.19271e-014
rhumerus -22.5864 0.617072 -89.3575
rradius 44.3903
rwrist 17.5536
rhand -19.2316 12.3474
rfingers 7.12502
rthumb 7.08158 -17.5141
lclavicle 1.98785e-015 1.19271e-014
lhumerus -32.56 -1.60793 88.3542
lradius 40.2084
lwrist 8.36622
lhand -9.34248 50.465
lfingers 7.12502
lthumb 16.6167 79.7737
rfemur -18.1903 -6.11534 24.0671
rtibia 34.7166
rfoot -11.8854 -24.0624
rtoes 23.4247
lfemur -6.81785 1.39414 -19.3266
ltibia 52.0541
lfoot 0.00947807 -0.541957
ltoes -23.7156
276
root -0.631134 18.0076 13.5882 175.182 12.7576 -179.721
lowerback 20.4431 1.23714 -2.88981
upperback 2.66096 1.6875 2.56236
thorax -8.70006 1.14321 3.95919
lowerneck -9.84791 -1.59905 -2.13718
upperneck 32.1172 1.7864 -2.15708
head 12.2257 1.27508 0.00917653
rclavicle -9.93923e-015 1.35174e-014
rhumerus -22.4656 0.710299 -89.2662
rradius 45.097
rwrist 18.5684
rhand -19.5278 12.5112
rfingers 7.12502
rthumb 6.79571 -17.3597
lclavicle -9.93923e-015 1.35174e-014
lhumerus -33.6569 -0.9027 87.5629
lradius 41.4163
lwrist 10.6032
lhand -9.48445 50.6879
lfingers 7.12502
lthumb 16.4801 80.0079
rfemur -17.6542 -6.40018 24.381
rtibia 34.8298
rfoot -11.4766 -24.1137
rtoes 20.8747
lfemur -7.78606 1.37366 -18.7664
ltibia 53.9464
lfoot 1.90791 -1.54299
ltoes -22.676
277
root -0.592835 18.0039 13.4767 175.061 12.6617 -179.533
lowerback 20.4622 1.17807 -2.58832
upperback 2.85979 1.71566 2.66882
thorax -8.48935 1.15496 3.89287
lowerneck -10.6068 -1.66747 -2.12833
upperneck 32.3163 1.65475 -2.12256
head 12.4663 1.19341 0.00442463
rclavicle -3.25013e-014 2.94201e-014
rhumerus -22.0636 0.917442 -89.0407
rradius 46.2053
rwrist 19.3843
rhand -19.5366 12.0688
rfingers 7.12502
rthumb 6.78719 -17.8024
lclavicle -3.25013e-014 2.94201e-014
lhumerus -34.2285 -0.195144 86.8568
lradius 42.5342
lwrist 11.7992
lhand -9.60078 50.8317
lfingers 7.12502
lthumb 16.3681 80.161
rfemur -17.0937 -6.54145 24.5456
rtibia 35.0182
rfoot -12.5158 -23.8491
rtoes 22.3268
lfemur -8.80037 1.23806 -18.3836
ltibia 55.7155
lfoot 3.64274 -2.6788
ltoes -20.8886
278
root -0.55197 18.0042 13.3697 174.91 12.6233 -179.32
lowerback 20.6652 1.1886 -2.44066
upperback 2.87761 1.79604 2.88415
thorax -8.5901 1.20076 4.02005
lowerneck -10.9316 -1.87044 -2.51011
upperneck 32.7128 1.43173 -1.85449
head 12.699 1.08647 0.149346
rclavicle 8.64713e-015 -2.38542e-015
rhumerus -22.0616 1.15292 -88.6422
rradius 47.4587
rwrist 20.1812
rhand -19.1882 11.3205
rfingers 7.12502
rthumb 7.1235 -18.5396
lclavicle 8.64713e-015 -2.38542e-015
lhumerus -35.0921 0.488848 86.3694
lradius 43.4819
lwrist 12.55
lhand -10.7562 49.6191
lfingers 7.12502
lthumb 15.2554 79.0365
rfemur -16.5235 -6.53959 24.7593
rtibia 35.2975
rfoot -14.1336 -23.6093
rtoes 25.5441
lfemur -9.72658 1.00341 -18.0032
ltibia 57.3266
lfoot 4.37505 -3.47746
ltoes -20.9455
279
root -0.517081 17.9976 13.2559 174.838 12.6432 -179.027
lowerback 20.6546 1.14888 -2.01345
upperback 2.84834 1.84971 2.96203
thorax -8.61288 1.21588 3.84426
lowerneck -9.90909 -1.91557 -2.44791
upperneck 31.878 1.24895 -1.96414
head 12.1379 1.00284 0.0608014
rclavicle -5.76476e-015 -2.3059e-014
rhumerus -22.1176 1.28929 -88.4402
rradius 48.5883
rwrist 20.9383
rhand -19.2819 11.318
rfingers 7.12502
rthumb 7.03304 -18.5451
lclavicle -5.76476e-015 -2.3059e-014
lhumerus -36.0705 0.737262 85.7849
lradius 44.3779
lwrist 13.0625
lhand -11.1894 50.736
lfingers 7.12502
lthumb 14.838 80.1847
rfemur -16.0704 -6.71421 25.0518
rtibia 35.6119
rfoot -15.2745 -23.3566
rtoes 27.0201
lfemur -10.5856 0.882246 -17.6104
ltibia 58.8192
lfoot 4.35609 -3.92616
ltoes -25.536
280
root -0.485312 17.9794 13.1443 174.785 12.7369 -178.737
lowerback 20.5779 1.12901 -1.68107
upperback 2.90874 1.92791 3.13027
thorax -8.50844 1.24986 3.81559
lowerneck -9.47804 -1.86294 -1.934
upperneck 31.2451 1.34828 -2.75061
head 11.799 1.00507 -0.317276
rclavicle -2.00773e-014 1.90833e-014
rhumerus -21.9597 1.61087 -88.0144
rradius 49.6596
rwrist 21.6239
rhand -19.6015 12.1317
rfingers 7.12502
rthumb 6.72456 -17.7416
lclavicle -2.00773e-014 1.90833e-014
lhumerus -36.7407 1.30397 85.3035
lradius 44.9772
lwrist 13.0891
lhand -11.8823 51.2373
lfingers 7.12502
lthumb 14.1704 80.734
rfemur -15.6721 -6.7527 25.3654
rtibia 35.8473
rfoot -15.4168 -23.3938
rtoes 25.6846
lfemur -11.3982 0.930095 -17.24
ltibia 60.1879
lfoot 3.58035 -4.32828
ltoes -28.6553
281
root -0.452777 17.9683 13.0435 174.686 12.8326 -178.431
lowerback 20.6446 1.1573 -1.38838
upperback 2.98678 2.07367 3.35287
thorax -8.4705 1.32305 3.84916
lowerneck -9.78361 -2.08236 -2.51645
upperneck 31.6307 1.07622 -2.28409
head 12.0154 0.874199 -0.0729154
rclavicle -1.31198e-014 4.69132e-014
rhumerus -21.8162 1.93446 -87.4619
rradius 50.95
rwrist 22.1425
rhand -19.7518 12.295
rfingers 7.12502
rthumb 6.57939 -17.5828
lclavicle -1.31198e-014 4.69132e-014
lhumerus -37.1821 1.87199 84.9431
lradius 45.3408
lwrist 12.8591
lhand -12.895 51.0369
lfingers 7.12502
lthumb 13.1944 80.5993
rfemur -15.1912 -6.80778 25.7258
rtibia 35.9374
rfoot -14.8905 -23.6269
rtoes 22.6276
lfemur -12.2259 0.852178 -16.8041
ltibia 61.4468
lfoot 2.8104 -4.6036
ltoes -27.3382
282
root -0.425397 17.9649 12.9371 174.534 12.9554 -178.037
lowerback 20.6811 1.17782 -0.981197
upperback 3.16649 2.24928 3.59366
thorax -8.30354 1.41171 3.82783
lowerneck -9.86547 -2.11681 -2.38763
upperneck 31.3643 1.01556 -2.55658
head 11.9262 0.813362 -0.209132
rclavicle 2.98177e-015 -4.13472e-014
rhumerus -21.4582 2.00772 -86.8003
rradius 52.0834
rwrist 22.7759
rhand -19.719 12.6008
rfingers 7.12502
rthumb 6.61109 -17.276
lclavicle 2.98177e-015 -4.13472e-014
lhumerus -37.3709 2.3344 84.5996
lradius 45.6539
lwrist 12.6054
lhand -13.7647 51.1713
lfingers 7.12502
lthumb 12.356 80.7861
rfemur -14.5492 -6.82824 26.1253
rtibia 35.9479
rfoot -14.7206 -23.7606
rtoes 21.1775
lfemur -12.95 0.558471 -16.2533
ltibia 62.5707
lfoot 2.18611 -4.76293
ltoes -23.4332
